PathFileType	4	(X/Y/Z)	pose_F01_0-95.trc
DataRate	CameraRate	NumFrames	NumMarkers	Units	OrigDataRate	OrigDataStartFrame	OrigNumFrames
30	30	13	21	m	30	63	95
Frame#	Time	CHip			RHip			RKnee			RAnkle			RBigToe			RSmallToe			RHeel			LHip			LKnee			LAnkle			LBigToe			LSmallToe			LHeel			Neck			Nose			RShoulder			RElbow			RWrist			LShoulder			LElbow			LWrist			
		X1	Y1	Z1	X2	Y2	Z2	X3	Y3	Z3	X4	Y4	Z4	X5	Y5	Z5	X6	Y6	Z6	X7	Y7	Z7	X8	Y8	Z8	X9	Y9	Z9	X10	Y10	Z10	X11	Y11	Z11	X12	Y12	Z12	X13	Y13	Z13	X14	Y14	Z14	X15	Y15	Z15	X16	Y16	Z16	X17	Y17	Z17	X18	Y18	Z18	X19	Y19	Z19	X20	Y20	Z20	X21	Y21	Z21	
63	2.1	-0.22630847007706492	1.848519543472234	-0.7533767564540617	-0.2425043916862848	1.8430255936292297	-0.6988502920174424	-0.2473737281610612	1.7194494856629705	-0.6848335953032312													-0.205951827475547	1.8427981747435898	-0.8092643665495373	-0.20135720093100493	1.7260130383612162	-0.7111551854187247													-0.21752309981564896	2.001337471761225	-0.7999723484417766	-0.21284894152710865	2.070854423279682	-0.7561311003630194	-0.24736160147700403	1.999734782694978	-0.7313327817820781	-1.3205251040065347	1.8280690254211467	0.38308692457142024	-0.2937362547504918	1.8922489675642074	-0.5269624328384674	-0.18571513755768196	2.0064414401670563	-0.8690801605250259	-0.9804629304428525	1.8276748948432449	-0.1007926381533548	-0.1340625608477204	1.8617796884983004	-0.9012635207350119
64	2.1333333333333333	-0.2250460633826707	1.84612072006576	-0.7517574678263412	-0.24058990922235365	1.836470926090153	-0.6960609324536615	-0.2473737281610612	1.7194494856629705	-0.6848335953032312													-0.2045367898523133	1.8329816263417302	-0.8080128303001469	-0.20135720093100493	1.7260130383612162	-0.7111551854187247													-0.21623793148970985	2.000051763182761	-0.8053407192349866	-0.20956630847400634	2.066318047536476	-0.764166329972848	-0.24636116871421734	1.9974547179065372	-0.7366496490475168	-1.3150549326529875	1.8268901972089713	0.3739536998943499	-0.29036057453985814	1.8866314937193478	-0.5462601165063989	-0.18520929828686147	2.0033095616397336	-0.8774095915462747	-0.9769017231870907	1.8196588882147509	-0.0856871449495869	-0.12934839833125603	1.8557192309240995	-0.8378480372571677
65	2.1666666666666665	-0.22378365668827646	1.8437218966592859	-0.7501381791986207	-0.24252727903071342	1.8443432976250105	-0.6946203922638104	-0.2473737281610612	1.7194494856629705	-0.6848335953032312													-0.20396919888501786	1.8447933604449076	-0.8054638117845079	-0.20135720093100493	1.7260130383612162	-0.7111551854187247													-0.2170858323290871	2.003554406830874	-0.809304896692516	-0.20900073025055615	2.066767491583141	-0.7723049588329572	-0.24551592258463817	2.0013300304364683	-0.7347096248745862	-1.3095847612994405	1.825711368996796	0.36482047521727956	-0.2869848943292244	1.8810140198744882	-0.5655578001743305	-0.18208721711599682	2.007007401134153	-0.8884987475379929	-0.9898957082255672	1.8304431012884115	-0.0662509094238262	-0.1294091250100061	1.869068854648294	-0.804154043526199
66	2.2	-0.22488985937771314	1.8428681076715796	-0.7489828653165393	-0.24349345513669757	1.8437492694997457	-0.6936086124611112	-0.2473737281610612	1.7194494856629705	-0.6848335953032312													-0.2058503752008671	1.844883255270075	-0.8034093398247695	-0.20135720093100493	1.7260130383612162	-0.7111551854187247													-0.21634432193348338	2.0050230456896307	-0.8062530692491646	-0.20666405806775306	2.0680220821712876	-0.7745112324021851	-0.24844086826640555	2.0028501156822434	-0.7353623532113919	-1.3041145899458932	1.8245325407846207	0.3556872505402092	-0.28360921411859075	1.8753965460296285	-0.5848554838422622	-0.1864691872404631	2.010927901317032	-0.8840814081084138	-0.9962393938940094	1.8369766263794705	-0.05907543407193238	-0.14464914232397885	1.882521541439905	-0.8014883443546427
67	2.2333333333333334	-0.2259960620671498	1.8420143186838733	-0.747827551434458	-0.24445963124268172	1.8431552413744807	-0.692596832658412	-0.2473737281610612	1.7194494856629705	-0.6848335953032312													-0.20619669544781144	1.8440563409612751	-0.80231946362452	-0.20135720093100493	1.7260130383612162	-0.7111551854187247													-0.21850812536826758	2.0040695147843053	-0.8037088143657332	-0.20893136276528573	2.0667969528594368	-0.7722995563069422	-0.2485284423344941	2.0018035472437843	-0.7350559908634848	-1.298644418592346	1.8233537125724453	0.3465540258631389	-0.280233533907957	1.869779072184769	-0.6041531675101938	-0.18587009663455256	2.0073403391907285	-0.8804735248878135	-1.0119660214212187	1.8311928453525073	-0.032749081009640676	-0.14588591097497366	1.8759223727175722	-0.8150859682865094
68	2.2666666666666666	-0.22710226475658649	1.8411605296961668	-0.7466722375523767	-0.24542580734866587	1.842561213249216	-0.6915850528557127	-0.2473737281610612	1.7194494856629705	-0.6848335953032312													-0.20654301569475578	1.8432294266524754	-0.8012295874242705	-0.20135720093100493	1.7260130383612162	-0.7111551854187247													-0.21864763027848919	2.0050044631743913	-0.8039170785112102	-0.20959951632641902	2.066173233810272	-0.7642128825650404	-0.2515843646869102	2.002939538616691	-0.7361227742567584	-1.293174247238799	1.82217488436027	0.33742080118606854	-0.27685785369732335	1.8641615983399094	-0.6234508511781253	-0.187446431694648	2.0085611463689883	-0.8755452728915956	-1.0133338404827876	1.8303974164480943	-0.036140296537554295	-0.14712267962596848	1.8693232039952394	-0.8286835922183761
69	2.3	-0.22820846744602316	1.8403067407084606	-0.7455169236702952	-0.24639198345465002	1.8419671851239512	-0.6905732730530134	-0.2473737281610612	1.7194494856629705	-0.6848335953032312													-0.20688933594170011	1.8424025123436754	-0.8001397112240212	-0.20135720093100493	1.7260130383612162	-0.7111551854187247													-0.21854583609891343	2.003933266742529	-0.8034355124931022	-0.2139824524106273	2.0660027267644647	-0.7597043822380205	-0.25059673621141115	2.0023576953828783	-0.7327996323105144	-1.2877040758852518	1.8209960561480947	0.3282875765089982	-0.27348217348668963	1.8585441244950498	-0.6427485348460569	-0.18593743610161528	2.006797016662557	-0.8693840720529717	-1.0133858707712113	1.8243558359423016	-0.037938356021096624	-0.1483594482769633	1.8627240352729066	-0.8422812161502429
70	2.3333333333333335	-0.22931467013545984	1.8394529517207543	-0.7443616097882139	-0.24735815956063417	1.8413731569986864	-0.6895614932503141	-0.2473737281610612	1.7194494856629705	-0.6848335953032312													-0.20723565618864445	1.8415755980348756	-0.7990498350237717	-0.20135720093100493	1.7260130383612162	-0.7111551854187247													-0.21905283995940128	2.0023599102855085	-0.7950638225250791	-0.21539170384384818	2.0659792179725933	-0.7544269775296938	-0.2485703209373734	2.001407343886449	-0.7259418259858275	-1.3401866714822623	1.8240829123450664	0.41777368778931895	-0.28108974103055984	1.8572487509257223	-0.5947103646278342	-0.18747964948586868	2.0066156063029026	-0.8641881697788545	-1.0162408737789586	1.8256223970769623	-0.03416227374202817	-0.14959621692795813	1.8561248665505738	-0.8558788400821096
71	2.3666666666666667	-0.2304208728248965	1.838599162733048	-0.7432062959061325	-0.24832433566661832	1.8407791288734214	-0.688549713447615	-0.24367263091865954	1.7080192741716451	-0.6540441164355936													-0.2075819764355888	1.8407486837260758	-0.7979599588235222	-0.20135720093100493	1.7260130383612162	-0.7111551854187247													-0.22052095358498017	2.002044926290294	-0.7897643791014064	-0.2181694330953577	2.0656293610526024	-0.7440277354594809	-0.2518874244777983	2.0006692608250507	-0.7270644424416237	-1.373823638813162	1.828640960171666	0.4754462914220266	-0.29573259239483957	1.8698179089773193	-0.5555033121520726	-0.18832662444372203	2.0057685820319837	-0.8559904119576521	-1.0222374696753973	1.8271101595549724	-0.02758644797054308	-0.15083298557895294	1.849525697828241	-0.8694764640139763
72	2.4	-0.22986434461667968	1.8410513318070623	-0.7398458899924186	-0.24929051177260247	1.8401851007481567	-0.6875379336449157	-0.24367263091865954	1.7080192741716451	-0.6540441164355936													-0.21131544851592335	1.8412171113120992	-0.7902071903180571	-0.20135720093100493	1.7260130383612162	-0.7111551854187247													-0.22272150938310023	2.002523994792479	-0.7765063697820228	-0.21875130039772417	2.0656137739074967	-0.7356240994498713	-0.2536524872905266	1.9997266279022377	-0.7135952669638955	-1.4010964623659972	1.8321688182157663	0.5160340018326512	-0.31194891315466194	1.8793819951430528	-0.5307646013293253	-0.1938072693020957	2.005143880764772	-0.8430650268639597	-1.032861317413622	1.8251203232232693	-0.008152247925363596	-0.15206975422994776	1.8429265291059083	-0.883074087945843
73	2.433333333333333	-0.23176957935139283	1.845279677185561	-0.7261908732601384	-0.2502765652718324	1.8431905681697378	-0.670415104821356	-0.24367263091865954	1.7080192741716451	-0.6540441164355936													-0.21459680333853834	1.8446417025196338	-0.7793780470043731	-0.20135720093100493	1.7260130383612162	-0.7111551854187247													-0.22775649579172122	2.0023222458616607	-0.7636035838925679	-0.2226247651642039	2.065868644444441	-0.7197568917847019	-0.25548765869752765	1.9992762285752448	-0.6998242777816518	-1.4115916216794666	1.8371975661762414	0.5275139602612564	-0.3177092609572228	1.883635654166059	-0.5245473876998624	-0.19705106267933473	2.0052064082151513	-0.8327092905218638	-1.044955183650947	1.8281304871726936	0.01037595788860684	-0.15564356896818066	1.8472714408807065	-0.8608424761488394
74	2.466666666666667	-0.23678683629610672	1.841293552652552	-0.7044572289969616	-0.2529030175601111	1.840813364476628	-0.6507984907331044	-0.24367263091865954	1.7080192741716451	-0.6540441164355936													-0.21566177054668514	1.84307863281158	-0.762180983637097	-0.20135720093100493	1.7260130383612162	-0.7111551854187247													-0.22975183344905464	2.001695485907183	-0.7499390282341089	-0.22762639261544307	2.064219477937762	-0.707085003612714	-0.2597246303639602	1.999262364304084	-0.6760873484215638	-1.4191995239999267	1.8404632817204816	0.5391151541155972	-0.3246149842073868	1.878416403783506	-0.520368182945339	-0.19921242404143194	2.0023343329788874	-0.8186267022025284	-1.0550229561214661	1.821187873233607	0.02716481203393496	-0.16098588658229898	1.8401987080165971	-0.8473145958028179
75	2.5	-0.2376266530302704	1.8401577134804121	-0.6868939540054595	-0.2593357086194923	1.8377915628085284	-0.6312158568347425	-0.24367263091865954	1.7080192741716451	-0.6540441164355936													-0.22107276162337164	1.8401967229508818	-0.7405043156631346	-0.20135720093100493	1.7260130383612162	-0.7111551854187247													-0.23561663095579527	1.9990905732521729	-0.7201241243581303	-0.22841110585839083	2.0663742337323456	-0.6908273402216194	-0.26179967726936876	1.9968986474779549	-0.6450745027820645	-0.29715791967967253	1.9331979335694736	-0.5907623306228422	-0.31915603274814675	1.8706117899765626	-0.5143262287064259	-0.2052686244775775	1.999153217528881	-0.7970670333766611	-1.084509311979216	1.8212160901889687	0.0651946749037065	-0.17378695351109394	1.8424199507016858	-0.8271850241948417
